<?xml version="1.0" encoding="utf-8"?>
<!-- Generator: Adobe Illustrator 19.2.1, SVG Export Plug-In . SVG Version: 6.00 Build 0)  -->
<svg version="1.1" id="Layer_1" xmlns="http://www.w3.org/2000/svg" xmlns:xlink="http://www.w3.org/1999/xlink" x="0px" y="0px"
	 viewBox="0 0 2331.2 1266.1" style="enable-background:new 0 0 2331.2 1266.1;" xml:space="preserve">
<style type="text/css">
	.st0{fill-rule:evenodd;clip-rule:evenodd;fill:#FCFCFC;}
	.st1{fill:#F13E1F;}
	.st2{fill:#F8F8F8;}
	.st3{fill:#EF3D1F;}
	.st4{fill:#EC3C1F;}
	.st5{fill:#42A54C;}
	.st6{fill:#EE3D1E;}
	.st7{fill:#2B6F33;}
	.st8{fill:#EC3C1E;}
	.st9{fill:#42A547;}
</style>
<path class="st0" d="M1021,568.5C1021,568.5,1021,568.6,1021,568.5C1021,568.6,1021,568.5,1021,568.5z"/>
<g>
	<path class="st1" d="M1619.7,657.4c6,24,11.7,48.1,17.9,72c6,22.9,13.3,45.5,18.4,68.6c1.5,7-2.5,15.1-4,22.8
		c-8.1-4.1-18.8-6.2-23.7-12.7c-5.6-7.4-6.3-18.6-8.6-28.3c-2.6-10.9-3.8-22.2-7.1-32.8c-3.5-11.3-8.6-22.1-13-33.2
		c-6.2,10.7-13.2,20.9-18.4,32.1c-7.9,16.8-14.2,34.4-22.1,51.3c-2.5,5.2-7.8,9.1-11.9,13.6c-3.6-4.6-8.3-8.7-10.7-13.9
		c-10.6-23.9-20.3-48.2-30.9-72.1c-2.4-5.3-19.2-2.7-20.7,3.6c-5.8,25.4-11.2,51-15.4,76.8c-2.3,14.3-9.5,20.4-22.8,17
		c-15.7-4-7.8-15.4-5.3-24c14.2-47.8,28.6-95.5,26.9-146.3c-0.2-5.9,5.1-15.7,9.7-16.9c4.9-1.4,14.8,3.7,17.5,8.7
		c8.3,15.2,14,31.8,21,47.7c3.5,8,6.7,16.3,11.4,23.6c6.3,9.8,13.8,18.7,20.9,28c5.2-9.6,11.2-18.9,15.6-28.9
		c8-18.2,15.2-36.8,22.7-55.3c1.4-3.5,2.2-7.9,4.8-10c6.8-5.4,14.4-9.8,21.7-14.6c4.2,6.6,8.4,13.2,12.6,19.8
		C1624.1,655.1,1621.9,656.2,1619.7,657.4"/>
	<path class="st2" d="M723.1,514.6c-11.8-5.9-26.8-9.1-34.9-18.3c-38.6-43.8-21-140.6,29.2-168.9c44.4-25.1,114.9-14.6,152.8,22.7
		c43.1,42.3,51.4,107.9,23.4,161.4c-21.9,41.8-53.3,74.9-87.4,106.2c-5.7,1.5-9.3,1.1-5.6-6c18.7-26.5,38.2-52.4,55.8-79.5
		c31.1-48.2,29.3-106.9-3-151.1c-42.9-58.5-127.8-51.9-161.1,12.6c-22.6,43.8,3.9,97.9,55.2,113
		C744.4,524.8,732.4,515.4,723.1,514.6"/>
	<path class="st3" d="M1878.5,716.1c13.2-1.7,23.1-4.3,32.9-3.7c4.7,0.3,12.1,6.1,12.6,10.1c0.6,4.3-4.3,11.6-8.8,14
		c-6.3,3.4-14.5,3.2-21.7,5.1c-10.1,2.7-20.1,6-30.2,9c8,7.5,15.7,15.4,24.2,22.3c10.5,8.7,22.3,16,32.3,25.3
		c4.2,3.9,5,11.3,7.3,17.1c-6.7,2-16.4,8-19.7,5.5c-33.6-25.5-66.4-52.1-98.7-79.2c-2.4-2-1.2-12.8,1.9-15.9
		c28.8-29.1,57.9-58,88.3-85.4c5.5-5,17.4-3,26.4-4.2c-3.2,8.5-4.5,18.6-10,25.1c-12,14.2-26.4,26.5-39.4,39.9
		c-3.2,3.3-4.9,8.1-7.3,12.3C1873,714.5,1877.2,715.7,1878.5,716.1"/>
	<path class="st4" d="M852.2,724.2c5.4,2.9,10.6,6.3,16.2,8.4c16.3,6.2,32.3,5.6,43.9-8.7c12.2-14.9,11.1-31.9,3.5-49
		c-8-17.8-21.2-26.2-41.1-25.2c-60.4,2.8-97.9,48.9-94.7,117.1c-3.1,3.8-6.5,4.1-10.3,1c-5.8-44.1,11.9-80.3,39.2-112.6
		c25-29.5,65.1-37.7,98.1-21.3c21.9,10.8,34.9,35,32.7,62.2c-1.8,22.1-8,42.2-32.2,49.5c-23.2,7-46.6,12.6-62.4-14.1
		C842,723.6,845.6,722.5,852.2,724.2"/>
	<path class="st5" d="M694.1,640.1c-9.9,0.9-20.1,3.6-29.6,2.2c-18.8-2.7-31.8-14.4-36.1-33.1c-6.9-30,19.2-79,45.2-86.9
		c31.9-9.6,73.8,13.2,86.5,47.6c2.1,5.7,2.1,12.2,3.1,18.3c4.8,10.3,4.8,20.7,0,31c-0.2,2.2-0.6,4.4-1.3,6.6
		c-2.3,3.2-4.9,3.6-7.6,0.5c0.6-33.5-19.7-73.7-42.9-79.4c-19.4-4.8-40.1-4.7-55.3,12.3c-13.3,14.8-19.7,33.7-11.7,51.7
		c9.2,20.7,29.8,23.9,50.9,21.6c2.1,2.1,2.6,3.9,1.6,5.5C696,639.4,695,640.1,694.1,640.1"/>
	<path class="st2" d="M554.5,891.3c-17.3,9.3-33.6,23.1-52.1,27c-61.8,13.2-124.3,23-186.6,33.5c-8.3,1.4-17.6,0.3-25.8-2
		c-5.2-1.5-9.2-7.3-13.7-11.1c4.1-4.3,7.5-11.2,12.4-12.5c15.4-4.2,31.4-6.3,47.2-9.3c36.5-7,73.1-14.2,109.6-21.3
		c3.9-2.7,7.5-2.3,10.8,1c-0.4,12.8-10.6,16.8-19.9,19c-41,9.8-82.5,17.2-124.7,20.6c-2.6,0.2-4.8,0.3-6.8-1.6c-0.9,2-0.4,4.4,1,4.1
		c2.4-0.4,4.6-2,7.1-2.3c49.4-5.1,98.2-13.3,146.3-26.4c28.8-7.9,55.6-22.4,85.8-25.6C549.3,885.1,552.5,887.4,554.5,891.3"/>
	<path class="st2" d="M769.8,767.8c3.4-0.3,6.9-0.6,10.3-1l51.4,21.5c3.1,3.1,3.4,6.4,1,10c-27,0.8-53.2-6.4-79-11.7
		c-23.3-4.7-40.3-0.9-59,11.2c-46.7,30.2-91.7,63.7-146,80.2c-15.1,4.6-29.5,14.3-46.4,6.6c-2.3-1.7-3.4-3.7-3.1-5.9
		c0.2-2.3,0.7-3.5,1.3-3.5C570.9,853.5,634,816.9,694,774.4c3-2.2,5.9-5.7,9.2-6.1c32.3-3.9,41.2-26.1,43.2-54.1
		c7.7,3.4,3.3,11.9,7.2,16.8c0.4,9.4-0.5,19.1,2,27.9C756.8,762.9,764.8,764.9,769.8,767.8"/>
	<path class="st6" d="M1986.9,726.6c0,26.3,0.6,52.5-0.5,78.7c-0.2,5.7-6.7,11.2-10.4,16.8c-4.1-5.3-11.6-10.5-11.8-15.9
		c-1.5-53.7-2.2-107.4-1.5-161c0.1-4.3,11.6-8.5,17.7-12.8c3.4,5.2,10,10.6,9.8,15.7c-1.1,26.2-3.9,52.2-6.1,78.4
		C1985.1,726.5,1986,726.6,1986.9,726.6"/>
	<path class="st6" d="M2024.3,726.7c0-25.9-0.9-51.8,0.7-77.5c0.4-5.9,8.2-14.8,14.1-16.3c13.1-3.4,17,5.3,15.6,17.6
		c-2.3,19.7-5.3,39.6-5.4,59.4c-0.2,24.8,2.5,49.7,3.5,74.5c0.3,8.6,0.6,17.7-1.7,25.9c-1.3,4.6-7.8,7.8-12,11.7
		c-3.4-4.4-9.3-8.7-9.7-13.4c-2.2-27.2-3-54.5-4.4-81.8C2024.8,726.6,2024.5,726.7,2024.3,726.7"/>
	<path class="st2" d="M940.9,826.7c21.2-31.1,33.7-32.7,62.6-14.6c45.8,28.8,91.2,59.6,140.3,81.7c29,13,64.9,10.7,97.6,15.6
		c11.4,1.7,22.6,4.6,33.9,6.9c-1.2,3.9-3.7,6.6-7.4,8.3c-75.8,15.1-141.6-13.1-205.6-48.4c-18.5-10.2-37.8-19.7-53.7-33.7
		c-17.8-15.6-36.4-19.9-58.2-11.3C946.4,831.8,943.2,830.2,940.9,826.7"/>
	<path class="st2" d="M1275.3,916.3c14.7,18.9,13.7,29.1-5.9,32.7c-18,3.2-37,1.9-55.5,0.7c-27.1-1.9-54.2-5.5-81.2-8.3
		c-4.9-0.5-10.5,0.4-14.7-1.5c-41.4-18.6-82.6-37.6-123.9-56.5c1.1-1.6,2.2-3.1,3.2-4.7c29.7-8.4,52.4,10.3,76.8,20.7
		c57.2,24.2,118,26,178.3,31c7.7,0.6,14.8-1.8,18.8-9.4C1272.7,919.5,1274.1,918,1275.3,916.3"/>
	<path class="st2" d="M1488,560.1c0.6-13.2-0.9-28.7,2.8-42.8c2.8-10.7,10.5-22.7,19.6-28.4c7.1-4.5,26.3-3.6,28.5,0.8
		c6.8,13.3-6.6,13.9-16,16.9c-4.6,1.5-7.4,8.3-11.1,12.7c5.1,3.2,10.3,6.3,15.2,9.8c2.7,1.9,6.7,4.2,6.9,6.5c0.2,2.6-3.4,8-5.1,7.9
		c-25.9-1.8-23.1,15.6-22.2,32c0.2,3.7,0.8,7.8-0.5,11.1c-3.1,7.9-7.3,15.4-11,23c-2.4-7.3-5.9-14.4-6.9-21.9
		C1487.1,579.3,1488,570.5,1488,560.1"/>
	<path class="st2" d="M1557.4,554.7c0.7-9.4-1-26.5,4.1-41.2c3.9-11.1,15.3-20.8,25.7-27.7c4.7-3.1,14.9,2.2,22.7,3.7
		c-4.8,5.4-9.4,11-14.4,16.2c-4.7,4.8-9.8,9.2-14.7,13.8c5.2,3.1,10.5,6.1,15.5,9.5c2.6,1.8,6.4,4.3,6.5,6.6
		c0.2,2.8-3.2,8.4-4.7,8.2c-25.9-2-23.3,15.3-22.3,31.9c0.3,4.9,0.6,10.3-1,14.7c-2.6,6.8-6.9,13-10.5,19.5
		c-2.3-6.2-5.9-12.3-6.6-18.8C1556.6,581.4,1557.4,571.4,1557.4,554.7"/>
	<path class="st2" d="M984.2,874.5c-6.2-2.6-14.8-9.3-18.3-7.3c-75.4,45-132,14-182.6-43.5c1.8-3.5,4.7-5.6,8.5-6.4
		c15.3,0,24,11.6,34.5,20c40.2,32.6,83,36.3,127.8,11.1c31.1-17.5,37.5-13.3,41,27.3C991.3,876.4,987.7,876,984.2,874.5"/>
	<path class="st2" d="M723.1,514.6c8.1-2.6,16.3-5.3,24.4-7.9c13.5-1.5,27.4-1.7,40.6-4.8c25.9-6.1,36.8-24.4,31.7-49.7
		c-4.9-24-23.7-36.7-49.2-33.4c-4,0.5-8.2,0.5-12.2,0.7c3-3.4,5.4-8.1,9.1-9.9c23.6-11.2,47.8-1.4,58.3,23
		c19.4,45.1,0.8,80.5-48.2,86.8C759.9,521.8,741.3,516.5,723.1,514.6"/>
	<path class="st2" d="M1381.7,613.6c-5.4,1.5-9.2,3.9-12.1,3.1c-4.6-1.3-9.1-4.3-12.7-7.5c-13.7-12.1-27-24.6-40.4-36.9
		c15.2-13.9,30.2-28.2,46-41.4c2.3-1.9,8.7,1,13.2,1.8c-1.6,4.3-2.3,9.4-5.1,12.6c-9.2,10.5-19.1,20.3-28.8,30.3
		c10.5,8.7,21.1,17.3,31.3,26.2C1375.8,604.1,1377.4,607.5,1381.7,613.6"/>
	<path class="st2" d="M783.3,823.7c-34.6-13.4-68.1-18.2-100.2,7.6c-11.3,9.1-25.3,14.8-38,22c-1.4-1.4-2.9-2.8-4.3-4.2
		c23.6-47.4,90.5-70.7,134.7-46.8c6.9,3.7,11.3,9.3,10.9,17.7C785.3,821.2,784.3,822.4,783.3,823.7"/>
	<path class="st2" d="M830.3,798c0.4-3.2,0.7-6.4,1.1-9.7c32.7,23.5,64.8,49.1,109.5,38.3c1.1,1.2,2.2,2.4,3.3,3.6
		c-0.9,16.5-12.9,22.4-25.7,20.4C882.6,844.8,846.9,836.9,830.3,798"/>
	<path class="st4" d="M852.2,724.2c-2.3,2.4-4.6,4.8-6.9,7.2c-12.6-26.6-9.9-40.8,9.1-53.4c11.8-7.8,21.3-6.1,27.7,5.9
		c3.1,5.9,3,13.4,4.3,20.2c-4.7-3.2-10.1-5.7-13.8-9.8c-8.3-9.2-16.4-7.8-19.8,2.3C849.8,705,852.1,715,852.2,724.2"/>
	<path class="st5" d="M754.3,626.3c2.5-0.2,5.1-0.3,7.6-0.5c-9.8,27.7-19.6,55.5-29.5,83.2c-1.2,3.2-2.9,6.3-4.4,9.4
		c-0.8-3.5-2.4-7-2.4-10.6C725.3,677.2,735.6,650.2,754.3,626.3"/>
	<path class="st2" d="M753.7,731c-2.4-5.6-4.8-11.2-7.2-16.8c5.9-16.6,11.8-33.2,17.7-49.8c7-1,10.5,1.1,7.3,8.7
		C765.6,692.4,759.6,711.7,753.7,731"/>
	<path class="st2" d="M771.5,673.1c-2.4-2.9-4.9-5.8-7.3-8.7c12.2-17.5,24.3-35.1,36.5-52.6c1.9,2,3.7,4,5.6,6
		C794.7,636.2,783.1,654.7,771.5,673.1"/>
	<path class="st5" d="M694.1,640.1c0.4-2.5,0.8-5.1,1.2-7.6c2.5-8.1,5.3-16.1,7.3-24.2c1.4-5.6,1.7-11.4,2.5-17.2
		c3.6,6.1,11.7,14.2,10,18C710.2,620.3,701.4,629.9,694.1,640.1"/>
	<path class="st2" d="M1638.1,478c7.7,9.9,13.1,16.9,18.6,23.9c-2.7,1.5-6.4,5-8,4.2c-7.2-3.6-13.7-8.5-20.5-12.9
		C1630.6,489.5,1633,485.9,1638.1,478"/>
	<path class="st2" d="M500.1,875.2c0.2,3.1,0.3,6.3,0.5,9.4c-10.5,18-25.1,21.8-43.5,12.6c-3.9-0.6-7.8-1.1-11.7-1.7
		C463.7,888.7,481.9,881.9,500.1,875.2"/>
	<path class="st2" d="M645.1,853.3c-11.5,7.3-22.9,14.7-34.4,22c-5.3,2.5-10.4,2.7-15-1.5c-0.8-3.7-0.1-7.1,1.8-10.4
		c13.2-9.5,25.8-21.4,44.3-13.3C642.5,851.7,643.6,852.7,645.1,853.3"/>
	<path class="st2" d="M597.8,867.7c0,2.2,0.1,4.4,0.2,6.6c0.2,1.6,0.3,3.1,0.5,4.7c-14.6,4.1-29.3,8.3-43.9,12.4
		c-0.9-1.1-1.8-2.2-2.7-3.3C559.8,864.6,577.8,863.9,597.8,867.7"/>
	<path class="st7" d="M763.1,619.2c0-10.3,0-20.6,0-31C763.2,598.5,763.1,608.9,763.1,619.2"/>
	<path class="st2" d="M598.4,878.9c-0.9-1.5-1-3-0.5-4.7c4.3,0.4,8.5,0.7,12.8,1.1C606.6,876.5,602.5,877.7,598.4,878.9"/>
	<path class="st2" d="M984.2,874.5c3.3,0,6.5,0,9.8-0.1c2.5,1.2,3.5,2.6,3,4.3c-0.5,1.8-1.1,2.7-1.8,2.7l-1,2
		C990.8,880.5,987.5,877.5,984.2,874.5"/>
	<path class="st1" d="M1418.5,725.8c-7.5-77.3-32.2-101.7-102.1-92.2c-58.2,7.9-85.3,48.9-80,113.5c4.2,50.7,44.9,80.6,100.4,76.2
		C1383.5,819.6,1423,772.5,1418.5,725.8z M1317.3,794c-34.8,1.2-52.4-28.2-51.4-71.4c1-41.6,28-63.6,76.8-59
		c14.2,1.3,31,11,39.8,22.3c7.5,9.6,5.2,26.8,7.2,40.7C1384,775.3,1363.9,792.4,1317.3,794z"/>
	<path class="st1" d="M1784.3,692.1c-25.2-19.6-50.5-39.3-77.3-56.4c-13-8.3-21.4-0.5-19,15c8,50.6,8.7,101-0.5,151.4
		c-2.5,18,6.6,26.8,23,19.8c6.1-2.6,12.9-16,11.1-22.2c-10-35.5,0.5-58.7,34.9-72.6c10-4,18.7-12.2,26.5-20
		C1785.9,704.2,1786.6,693.9,1784.3,692.1z M1730.9,712.7c-4.4-11.3-9-22.5-12.8-34c-0.5-1.6,3.3-4.5,7.1-9.6
		c9.8,11.4,18.2,21,26.5,30.6C1744.8,704,1737.8,708.4,1730.9,712.7z"/>
	<path class="st8" d="M1159.6,653.5c-7.9-5.7-16.4-11.2-25.4-14.9c-22.8-9.5-27.9-6.4-24.7,17c6.6,48.5,8.8,96.7-1.7,149.9
		c0.7,2.4,0.9,13.3,5,15.1c7.1,3.1,20.7,3.9,24.3-0.4c5-5.8,4.5-17.5,4-26.6c-1.3-20.9-4.3-43.6,17.1-55.4
		C1223.7,702,1227.3,702.4,1159.6,653.5z M1152.6,712.1c-4.2-10.1-8.9-20-12.3-30.4c-0.6-1.8,6.5-8,6.6-7.8
		c9.4,7.4,18.5,15.2,30.1,25.1C1167,704.3,1159.8,708.2,1152.6,712.1z"/>
	<path class="st9" d="M995.2,881.5c-0.4-2.3-0.8-4.7-1.2-7c-2.3-4.3-5.5-8.4-6.9-13c-5.5-17.5-7.8-23.3-26.1-6
		c-33,31.2-99.2,24.7-136.8-7.2c-12-10.1-25.1-18.9-37.8-28.2c-27.9-20.7-65.3-24.9-91-8.5c-18.5,11.8-35.7,25.7-53.4,38.6
		l-44.2,17.5c-15.3,6.8-30.6,13.5-45.9,20.3c-60.3,27.2-124.1,41.5-189.2,50.2c-22,2.9-44.6,1.1-66.9,1.4
		c19.4-5.4,38.7-11.1,58.2-16.1c34.3-8.9,68.8-17.5,103.2-26.2c14.5-4.2,29-8.4,43.5-12.6c70.7-17.4,131.8-54.5,190.7-95.3
		c20.4-14.1,38.5-27.4,63.2-9.6c4.3,3.1,12.4,3.6,17.7,2c23.2-7.1,40.4,5.3,58.1,16.4c26.3,14.3,52.1,29.7,79.1,42.5
		c12.4,5.9,26.5,4.4,34.8-10.3c29.3-22.9,34.3-21.3,63.6-0.3c78.5,56.5,162.5,98.6,263.5,91c10,17.1-2.5,20.2-14.1,19.5
		c-31-2-61.8-8.3-92.7-8.4c-48-0.2-88.3-22.1-130.6-39.4C1021.5,887.6,1008.1,885.1,995.2,881.5"/>
	<path class="st2" d="M1415.3,526.1c-2.5,1.6-8.1,5.2-13.6,8.8c3,2.9,6,8.5,8.9,8.4c28.5-0.3,19.6,8.9,5.5,19.9
		c-4.9,3.8-13.3,7.1-14,11.6c-1.4,8.7-1.1,19.7,3.4,26.7c4.7,7.3,14.6,14.7,22.9,15.6c12.6,1.3,37.9-29.6,37.3-41.6
		C1464.3,549.6,1442.2,525.8,1415.3,526.1z M1427.5,594.1c-1.8,0.8-6.8-5.8-10.3-9c6.5-5.5,12.6-11.6,19.8-16
		c1.9-1.2,7.1,2.8,17.8,7.5C1442.2,585,1435.3,590.6,1427.5,594.1z"/>
	<path class="st2" d="M1674.2,549.8c-5.3-8.7-20.6-21.7-22.3-20.5c-14.9,11.1-32.9,22.9-39.7,38.8c-7.2,17,23.6,53.7,40.9,55
		c2.7-1.3,8.8-3.2,8.7-4.5c-0.3-3.8-2.2-9.5-5.1-10.8c-16.2-7.4-7.6-14,0.1-20.7c5.6-4.9,13.7-8.3,16.5-14.4
		C1676.3,566.1,1677.6,555.4,1674.2,549.8z M1638.7,576.6c-0.8,0.4-7.4-8.2-6.9-8.8c5-5.8,10.7-11.2,17-15.4c1-0.7,6.3,5,12.6,10.3
		C1652.1,568.6,1645.7,573.2,1638.7,576.6z"/>
</g>
</svg>
