<?xml version="1.0" encoding="utf-8"?>
<!-- Generator: Adobe Illustrator 19.2.1, SVG Export Plug-In . SVG Version: 6.00 Build 0)  -->
<svg version="1.1" id="Layer_1" xmlns="http://www.w3.org/2000/svg" xmlns:xlink="http://www.w3.org/1999/xlink" x="0px" y="0px"
	 viewBox="0 0 164.1 166.7" style="enable-background:new 0 0 164.1 166.7;" xml:space="preserve">
<style type="text/css">
	.st0{fill:#EAEAE5;}
	.st1{fill:#CCD9E0;}
	.st2{fill:#76441C;}
	.st3{fill:#8F5427;}
	.st4{fill:#5D340D;}
	.st5{fill:#9D5C2D;}
</style>
<g>
	<path class="st0" d="M143.9,131.5l-24.6-24.9c-2.7-2.7-7.4-2.4-10.6,0.8c-3.1,3.2-3.5,8-0.8,10.7l24.6,24.9
		c2.7,2.7,7.4,2.4,10.6-0.8C146.2,139.1,146.6,134.3,143.9,131.5z"/>
	<path class="st1" d="M110.5,109.3c-3.1,3.2-3.5,8-0.8,10.7l10.4,10.6c5.2-9.4,4.9-18.1,4.9-18.1l-7.9-5.8
		C114.9,106.5,112.4,107.3,110.5,109.3z"/>
	<circle class="st0" cx="76.7" cy="80" r="58.2"/>
	<circle class="st2" cx="76.7" cy="80" r="51.1"/>
	<path class="st3" d="M105,37.6c12,9.3,19.7,23.9,19.7,40.3c0,28.2-22.9,51.1-51.1,51.1c-10.5,0-20.2-3.2-28.4-8.6
		c8.7,6.8,19.5,10.8,31.4,10.8c28.2,0,51.1-22.9,51.1-51.1C127.7,62.3,118.7,46.7,105,37.6z"/>
	<path class="st4" d="M29.6,84.8c0-28.2,22.9-51.1,51.1-51.1c14.7,0,27.9,6.2,37.2,16.1C108.6,37.2,93.6,29,76.7,29
		c-28.2,0-51.1,22.8-51.1,51c0,13.5,5.3,25.8,13.9,35C33.3,106.5,29.6,96.1,29.6,84.8z"/>
	<path class="st5" d="M51.1,46.8c-15.9,11.5-16.2,29.5-9.3,28.8C49,74.9,45.4,63.1,58,57.1s17.3-6.7,16-12.9S62.2,38.8,51.1,46.8z"
		/>
	<circle class="st5" cx="75.7" cy="39.2" r="2.2"/>
	<circle class="st5" cx="77.4" cy="44.6" r="1.3"/>
	<circle class="st5" cx="81.9" cy="42.7" r="1"/>
	<circle class="st5" cx="34.2" cy="73.9" r="1.5"/>
	<circle class="st5" cx="33.8" cy="80.7" r="1.1"/>
	<circle class="st5" cx="38.4" cy="79" r="1.8"/>
	<circle class="st5" cx="35.4" cy="85.5" r="1.2"/>
	<circle class="st5" cx="82.2" cy="38.2" r="1.4"/>
	<circle class="st2" cx="64.3" cy="44.2" r="1.1"/>
	<circle class="st2" cx="40.7" cy="70.6" r="1.1"/>
	<circle class="st2" cx="43.4" cy="68.5" r="0.5"/>
	<circle class="st2" cx="41.8" cy="64" r="1"/>
	<circle class="st2" cx="47.6" cy="55.7" r="1.9"/>
	<circle class="st2" cx="69.1" cy="46.4" r="1.4"/>
	<circle class="st2" cx="70.2" cy="43.6" r="0.4"/>
	<circle class="st2" cx="52.6" cy="56.4" r="0.6"/>
	<circle class="st2" cx="52.7" cy="52.2" r="1.4"/>
	<circle class="st2" cx="56.6" cy="54" r="0.9"/>
	<circle class="st2" cx="56.4" cy="49.9" r="0.6"/>
	<circle class="st5" cx="92.6" cy="122.1" r="1.2"/>
	<circle class="st5" cx="96.2" cy="118.3" r="2.5"/>
	<circle class="st5" cx="101.7" cy="116.8" r="1.5"/>
	<circle class="st5" cx="107.9" cy="110.4" r="2.8"/>
	<circle class="st5" cx="113.6" cy="105.8" r="0.8"/>
	<circle class="st5" cx="118.7" cy="94.3" r="1.2"/>
	<circle class="st5" cx="120.1" cy="86.4" r="1.7"/>
	<circle class="st5" cx="121.2" cy="78.1" r="2.5"/>
	<circle class="st5" cx="121.2" cy="70.6" r="0.7"/>
	<circle class="st5" cx="118.2" cy="60.8" r="2"/>
</g>
</svg>
