<?xml version="1.0" encoding="utf-8"?>
<!-- Generator: Adobe Illustrator 19.2.1, SVG Export Plug-In . SVG Version: 6.00 Build 0)  -->
<svg version="1.1" id="Layer_1" xmlns="http://www.w3.org/2000/svg" xmlns:xlink="http://www.w3.org/1999/xlink" x="0px" y="0px"
	 viewBox="0 0 164.1 166.7" style="enable-background:new 0 0 164.1 166.7;" xml:space="preserve">
<style type="text/css">
	.st0{fill:#EAEAE5;}
	.st1{fill:#CCD9E0;}
	.st2{fill:#D1AA72;}
	.st3{fill:#E4BF83;}
	.st4{fill:#C59555;}
	.st5{fill:#FFEBAF;}
</style>
<g>
	<path class="st0" d="M143.9,131.5l-24.6-24.9c-2.7-2.7-7.4-2.4-10.6,0.8c-3.1,3.2-3.5,8-0.8,10.7l24.6,24.9
		c2.7,2.7,7.4,2.4,10.6-0.8C146.2,139.1,146.6,134.3,143.9,131.5z"/>
	<path class="st1" d="M110.5,109.3c-3.1,3.2-3.5,8-0.8,10.7l10.4,10.6c5.2-9.4,4.9-18.1,4.9-18.1l-7.9-5.8
		C114.9,106.5,112.4,107.3,110.5,109.3z"/>
	<circle class="st0" cx="76.7" cy="80" r="58.2"/>
	<circle class="st2" cx="76.7" cy="80" r="51.1"/>
	<path class="st3" d="M105,37.6c12,9.3,19.7,23.9,19.7,40.3c0,28.2-22.9,51.1-51.1,51.1c-10.5,0-20.2-3.2-28.4-8.6
		c8.7,6.8,19.5,10.8,31.4,10.8c28.2,0,51.1-22.9,51.1-51.1C127.7,62.3,118.7,46.7,105,37.6z"/>
	<path class="st4" d="M29.6,84.8c0-28.2,22.9-51.1,51.1-51.1c14.7,0,27.9,6.2,37.2,16.1C108.5,37.2,93.6,29,76.7,29
		C48.5,29,25.6,51.8,25.6,80c0,13.5,5.3,25.8,13.9,35C33.3,106.5,29.6,96.1,29.6,84.8z"/>
	<g>
		<path class="st5" d="M74.8,60.1c0,0,1.6-5.2-0.1-8c-1.7-2.9-2.7-4.7-5.1-4c-2.4,0.7-1.4,4.2,0.6,5.7
			C72.1,55.4,74.1,58.8,74.8,60.1z"/>
		<path class="st5" d="M74.5,70.4c0.9,1.5,0.5-4.2-0.2-6.2c-0.6-2-4.2-6.4-6.5-7.3c-2.3-0.9-3.7,4-0.7,6.5
			C70.1,65.8,72.9,67.7,74.5,70.4z"/>
		<path class="st5" d="M75.1,80.3c0,0,0.7-5.2-0.6-7.5c-1.4-2.3-7.4-6.9-9.7-7c-2.3-0.2-1.7,4.9,1.5,7.1
			C69.3,75.1,74,78.2,75.1,80.3z"/>
		<path class="st5" d="M74.8,89c0,0,1.8-3-1.8-7.2c-3.5-4.3-6.9-5.8-9.3-7.3c-2.4-1.5-3.3,4-0.6,6.1C66,82.7,71.5,83.9,74.8,89z"/>
		<path class="st5" d="M74.8,97.3c0,0,1.1-3.1-3-7.6c-4.1-4.4-7.5-3.3-10.1-6.2c-2.6-2.9-3.4-6.5-3.4-6.5s-1.4,6.3,2.6,10.4
			C64.9,91.5,70.1,90.7,74.8,97.3z"/>
		<path class="st5" d="M75,105.8c0,0,1.2-3.3-4.6-6.9c-5.8-3.5-13.4-5.2-15.7-16.7c-2.2-11.5,6.7-21.3,6.7-21.3s-8,2.1-10,14.1
			c-2,11.9,3.5,21,9.3,24.8C66.4,103.6,73.2,103.9,75,105.8z"/>
		<path class="st5" d="M75,113.8c0,0,0.2-3.1-7.9-7.3c-8.1-4.3-14.8-5.7-17.9-17.7c-3.1-11.9-1.1-24.2,6.5-30.6
			c0,0-11.9,4.8-11.1,22.6c0.8,17.8,9.5,24.6,17,28.2C69.1,112.5,72.6,111.8,75,113.8z"/>
		<path class="st5" d="M75.3,121.3c0,0,0.4-3.8-6.6-6.4c-6.9-2.6-16.1-3.7-23.7-17.8c-7.6-14.1-7.8-28,5.3-43.7
			c0,0-10.8,4.3-13.2,23.2c-2.4,18.9,7.2,31.6,16.5,36.7C62.8,118.3,71.1,117.9,75.3,121.3z"/>
		<path class="st5" d="M76.1,50.7c0,0,1-6.2-0.3-8.4c-1.3-2.2-2.5-2.3-3.8-0.3C70.6,44,73.2,48,76.1,50.7z"/>
	</g>
	<g>
		<path class="st5" d="M79.5,60.1c0,0-1.6-5.2,0.1-8c1.7-2.9,2.7-4.7,5.1-4c2.4,0.7,1.4,4.2-0.6,5.7C82.1,55.4,80.1,58.8,79.5,60.1z
			"/>
		<path class="st5" d="M79.7,70.4c-0.9,1.5-0.5-4.2,0.2-6.2c0.6-2,4.2-6.4,6.5-7.3c2.3-0.9,3.7,4,0.7,6.5
			C84.2,65.8,81.3,67.7,79.7,70.4z"/>
		<path class="st5" d="M79.2,80.3c0,0-0.7-5.2,0.6-7.5c1.4-2.3,7.4-6.9,9.7-7c2.3-0.2,1.7,4.9-1.5,7.1
			C84.9,75.1,80.2,78.2,79.2,80.3z"/>
		<path class="st5" d="M79.5,89c0,0-1.8-3,1.8-7.2c3.5-4.3,6.9-5.8,9.3-7.3c2.4-1.5,3.3,4,0.6,6.1C88.3,82.7,82.7,83.9,79.5,89z"/>
		<path class="st5" d="M79.5,97.3c0,0-1.1-3.1,3-7.6c4.1-4.4,7.5-3.3,10.1-6.2c2.6-2.9,3.4-6.5,3.4-6.5s1.4,6.3-2.6,10.4
			C89.4,91.5,84.2,90.7,79.5,97.3z"/>
		<path class="st5" d="M79.3,105.8c0,0-1.2-3.3,4.6-6.9c5.8-3.5,13.4-5.2,15.7-16.7c2.2-11.5-6.7-21.3-6.7-21.3s8,2.1,10,14.1
			c2,11.9-3.5,21-9.3,24.8C87.9,103.6,81,103.9,79.3,105.8z"/>
		<path class="st5" d="M79.3,113.8c0,0-0.2-3.1,7.9-7.3c8.1-4.3,14.8-5.7,17.9-17.7c3.1-11.9,1.1-24.2-6.5-30.6
			c0,0,11.9,4.8,11.1,22.6c-0.8,17.8-9.5,24.6-17,28.2C85.1,112.5,81.7,111.8,79.3,113.8z"/>
		<path class="st5" d="M78.9,121.3c0,0-0.4-3.8,6.6-6.4c6.9-2.6,16.1-3.7,23.7-17.8c7.6-14.1,7.8-28-5.3-43.7
			c0,0,10.8,4.3,13.2,23.2c2.4,18.9-7.2,31.6-16.5,36.7C91.4,118.3,83.2,117.9,78.9,121.3z"/>
		<path class="st5" d="M78.2,50.7c0,0-1-6.2,0.3-8.4c1.3-2.2,2.5-2.3,3.8-0.3C83.6,44,81,48,78.2,50.7z"/>
	</g>
</g>
</svg>
