<?xml version="1.0" encoding="utf-8"?>
<!-- Generator: Adobe Illustrator 19.2.1, SVG Export Plug-In . SVG Version: 6.00 Build 0)  -->
<svg version="1.1" id="Layer_1" xmlns="http://www.w3.org/2000/svg" xmlns:xlink="http://www.w3.org/1999/xlink" x="0px" y="0px"
	 viewBox="0 0 164.1 166.7" style="enable-background:new 0 0 164.1 166.7;" xml:space="preserve">
<style type="text/css">
	.st0{fill:#EAEAE5;}
	.st1{fill:#CCD9E0;}
	.st2{fill:#BA8547;}
	.st3{fill:#FACA93;}
	.st4{fill:#FBDEAD;}
	.st5{fill:#FFFCEA;}
	.st6{fill:#D69E6C;}
	.st7{fill:#9F6D35;}
</style>
<g>
	<path class="st0" d="M143.9,131.5l-24.6-24.9c-2.7-2.7-7.4-2.4-10.6,0.8c-3.1,3.2-3.5,8-0.8,10.7l24.6,24.9
		c2.7,2.7,7.4,2.4,10.6-0.8C146.2,139.1,146.6,134.3,143.9,131.5z"/>
	<path class="st1" d="M110.5,109.3c-3.1,3.2-3.5,8-0.8,10.7l10.4,10.6c5.2-9.4,4.9-18.1,4.9-18.1l-7.9-5.8
		C114.9,106.5,112.4,107.3,110.5,109.3z"/>
	<circle class="st0" cx="76.7" cy="80" r="58.2"/>
	<circle class="st2" cx="76.7" cy="80" r="51.1"/>
	<path class="st3" d="M43.5,104.4c6.5,9.9,17,15.2,27.5,17.3c13.6,2.1,27.3-3.1,36.7-14.7c12.6-15.7,11.5-36.7-1-51.4
		C100.3,49.2,94,45,85.7,44c11.5,3.1,22,11.5,27.3,23.1c8.4,22-5.2,47.2-28.3,52.5c-14.7,2.1-28.3-2.1-37.8-13.6
		c-13.6-16.8-11.5-42,5.2-55.6c18.9-15.7,46.2-10.5,59.8,9.4c13.6,22,4.2,51.4-19.9,60.9c-10.5,4.2-22,3.1-32.5-1
		c-21-9.4-30.4-35.7-21-56.7C47.9,43.1,70,33.6,91,39.9c25.2,7.3,37.8,39.9,25.2,62.9c8.4-19.9,5.2-43-13.6-56.7
		c-21-13.6-48.3-8.4-60.9,12.6c-7.3,13.6-8.4,30.4,0.7,43.9C42.7,103.2,43.1,103.8,43.5,104.4z"/>
	<path class="st4" d="M83.1,109.7c15.8-3.2,24.9-21,20.6-36.7c-3.9-9.9-11-18-21.7-21.2c-8-1.9-18.8-0.6-24.7,6.5
		c4.1-3.5,9-4.4,13-5.7c-1.3,0.4-2.7,0.9-3.6,2.6c9.4-3,19.7-1.1,26.8,4.7c8.4,7.7,13.2,20.3,8.6,31.4c-4.1,10.2-12.2,17.3-23,18.6
		c-15.7,2.1-29.9-7.4-33.3-22.7C42,68.4,56.1,49.7,75.3,49.5c13.4,0.1,25,8.3,29.3,21.8c5.2,16.2-3.5,33.1-18.7,38.7
		c-15.3,5.7-33.5-2.6-39.2-17.8c-5.2-13.9-0.1-30.4,12-38.8c16.2-9.7,36.7-5.9,46.8,11.6c8.3,16.6,3.7,34.5-12.1,43.3
		c3.2-4,8.1-7.1,10.9-12.4c0,0,0.9,0.5,0.4,1.3c9.1-13.3,4.3-32.6-8.5-42.6c-13.8-10.4-33.9-8.4-44.8,6.3
		c-8.2,11.5-10.1,26.3-1.3,37.6c7.1,8.1,18.2,14.9,29.5,12C80.8,110.2,82,110,83.1,109.7z"/>
	<path class="st5" d="M67.2,94.2c7.4,4.1,17.1,2,21.6-4.8c4.8-7.5,3.3-16.9-3.8-22.4c-5.5-4-12-3.6-16.7-0.1c-5,4.2-8.6,10.6-5,17
		c-0.1-1.6-0.5-2.6-0.8-3.6c1.4,2.2,1.2,4.5,3.9,5.7c-3.4-3.1-3-7.7-2.9-11.6c1-5.9,7-8.9,12.2-9.8C84.1,63.4,90,70,91.4,77.8
		c1.5,9.4-5.9,17.4-15.1,18.2c-7.2,0.1-14.9-2.5-16.6-9.6c-2.5-9,2.3-18.1,10.3-21.9C80.4,61,94.3,69.4,92,82
		c-1.9,8-7.7,14.2-15.9,14.6C67,97.4,58.2,92,57.7,83.9c-0.7-7.5,4.1-15,10.7-19.3C75.7,60.6,85,63,90,70c5.1,8.6,3.7,19.1-5.2,24.8
		c-7.3,4-18.1,4.9-22.5-3.4c3.2,5.4,9.8,5,15.3,5.1c-1.6,0.1-2.9,1.1-4.9,0.3c10.3,2.1,19.9-7.3,19.4-17.1
		c0.5-8.5-6.8-17.3-16.6-16.8c-10.1,1.2-16.8,9.4-17.7,18.6c0.3,4.9,3.4,8.7,7,11.3C65.6,93.3,66.3,93.8,67.2,94.2z"/>
	<path class="st6" d="M105,37.6c12,9.3,19.7,23.9,19.7,40.3c0,28.2-22.9,51.1-51.1,51.1c-10.5,0-20.2-3.2-28.4-8.6
		c8.7,6.8,19.5,10.8,31.4,10.8c28.2,0,51.1-22.9,51.1-51.1C127.7,62.3,118.7,46.7,105,37.6z"/>
	<path class="st7" d="M29.6,84.8c0-28.2,22.9-51.1,51.1-51.1c14.7,0,27.9,6.2,37.2,16.1C108.6,37.2,93.6,29,76.7,29
		c-28.2,0-51.1,22.8-51.1,51c0,13.5,5.3,25.8,13.9,35C33.3,106.5,29.6,96.1,29.6,84.8z"/>
</g>
</svg>
