<?xml version="1.0" encoding="utf-8"?>
<!-- Generator: Adobe Illustrator 19.2.1, SVG Export Plug-In . SVG Version: 6.00 Build 0)  -->
<svg version="1.1" id="Layer_1" xmlns="http://www.w3.org/2000/svg" xmlns:xlink="http://www.w3.org/1999/xlink" x="0px" y="0px"
	 viewBox="0 0 164.1 166.7" style="enable-background:new 0 0 164.1 166.7;" xml:space="preserve">
<style type="text/css">
	.st0{fill:#EAEAE5;}
	.st1{fill:#CCD9E0;}
	.st2{fill:#28110D;}
	.st3{fill:#38211D;}
	.st4{fill:#170000;}
</style>
<g>
	<path class="st0" d="M143.7,130.6l-24.6-24.9c-2.7-2.7-7.4-2.4-10.6,0.8c-3.1,3.2-3.5,8-0.8,10.7l24.6,24.9
		c2.7,2.7,7.4,2.4,10.6-0.8C146.1,138.1,146.4,133.3,143.7,130.6z"/>
	<path class="st1" d="M110.4,108.4c-3.1,3.2-3.5,8-0.8,10.7l10.4,10.6c5.2-9.4,4.9-18.1,4.9-18.1l-7.9-5.8
		C114.8,105.5,112.3,106.4,110.4,108.4z"/>
	<circle class="st0" cx="76.5" cy="79.1" r="58.2"/>
	<circle class="st2" cx="76.5" cy="79.1" r="51.1"/>
	<path class="st3" d="M104.9,36.7c12,9.3,19.7,23.9,19.7,40.3c0,28.2-22.9,51.1-51.1,51.1c-10.5,0-20.2-3.2-28.4-8.6
		c8.7,6.8,19.5,10.8,31.4,10.8c28.2,0,51.1-22.9,51.1-51.1C127.6,61.4,118.6,45.8,104.9,36.7z"/>
	<path class="st4" d="M29.5,83.9c0-28.2,22.9-51.1,51.1-51.1c14.7,0,27.9,6.2,37.2,16.1C108.5,36.2,93.5,28,76.6,28
		c-28.2,0-51.1,22.9-51.1,51.1c0,13.5,5.3,25.8,13.9,35C33.2,105.6,29.5,95.2,29.5,83.9z"/>
	<path class="st3" d="M51,45.9c-16,11.5-16.2,29.5-9.3,28.8c7.2-0.7,3.6-12.6,16.2-18.6s17.3-6.7,16-12.9
		C72.6,37.1,62.1,37.9,51,45.9z"/>
</g>
</svg>
